<svg width="75" height="75" viewBox="0 0 75 75" fill="none" xmlns="http://www.w3.org/2000/svg">
<path d="M37.5006 22.2656C34.4876 22.2656 31.5421 23.1591 29.0369 24.8331C26.5316 26.507 24.579 28.8863 23.4259 31.67C22.2729 34.4537 21.9712 37.5169 22.559 40.4721C23.1468 43.4272 24.5977 46.1417 26.7283 48.2723C28.8589 50.4029 31.5734 51.8538 34.5286 52.4416C37.4837 53.0294 40.5469 52.7278 43.3306 51.5747C46.1143 50.4216 48.4936 48.469 50.1676 45.9637C51.8415 43.4585 52.735 40.513 52.735 37.5C52.7304 33.461 51.1238 29.5888 48.2678 26.7328C45.4118 23.8768 41.5396 22.2703 37.5006 22.2656ZM37.5006 45.7031C35.8782 45.7031 34.2922 45.222 32.9432 44.3206C31.5942 43.4193 30.5428 42.1381 29.9219 40.6392C29.3011 39.1402 29.1386 37.4909 29.4551 35.8996C29.7716 34.3084 30.5529 32.8467 31.7001 31.6995C32.8474 30.5523 34.309 29.771 35.9003 29.4545C37.4915 29.1379 39.1409 29.3004 40.6398 29.9213C42.1388 30.5421 43.4199 31.5936 44.3213 32.9426C45.2227 34.2916 45.7038 35.8775 45.7038 37.5C45.7038 39.6756 44.8395 41.7621 43.3011 43.3005C41.7627 44.8388 39.6762 45.7031 37.5006 45.7031ZM70.8581 31.1806C70.7589 30.6855 70.5543 30.2174 70.258 29.8084C69.9617 29.3995 69.5809 29.0591 69.1413 28.8105L60.9997 24.167L60.9674 14.9941C60.9657 14.4852 60.8534 13.9827 60.6384 13.5214C60.4235 13.0601 60.1109 12.6509 59.7223 12.3222C56.4414 9.54629 52.6637 7.41785 48.5895 6.04978C48.1248 5.89301 47.6324 5.83522 47.1439 5.88013C46.6555 5.92504 46.1819 6.07164 45.7536 6.31052L37.5006 10.9189L29.2477 6.30759C28.8188 6.0674 28.3443 5.91983 27.8548 5.87441C27.3653 5.82899 26.8717 5.88674 26.4059 6.04392C22.3306 7.41768 18.5528 9.55209 15.2731 12.334C14.8858 12.6623 14.5742 13.0706 14.3598 13.5308C14.1454 13.991 14.0332 14.4923 14.0309 15L13.9899 24.1816L5.86001 28.8134C5.42029 29.063 5.03956 29.4044 4.74379 29.8144C4.44802 30.2244 4.24417 30.6934 4.14614 31.1894C3.31847 35.3587 3.31847 39.65 4.14614 43.8193C4.24495 44.3142 4.44916 44.7821 4.74489 45.1911C5.04063 45.6 5.42095 45.9405 5.86001 46.1894L14.0104 50.833L14.0426 60.0058C14.0444 60.5148 14.1566 61.0173 14.3716 61.4786C14.5866 61.9399 14.8992 62.349 15.2877 62.6777C18.5687 65.4537 22.3464 67.5821 26.4206 68.9502C26.8853 69.1069 27.3777 69.1647 27.8661 69.1198C28.3545 69.0749 28.8281 68.9283 29.2565 68.6894L37.5006 64.081L45.7448 68.6924C46.1737 68.9325 46.6482 69.0801 47.1377 69.1255C47.6272 69.171 48.1208 69.1132 48.5866 68.956C52.6619 67.5823 56.4396 65.4479 59.7194 62.666C60.1067 62.3377 60.4182 61.9293 60.6327 61.4691C60.8471 61.0089 60.9593 60.5077 60.9616 60L61.0026 50.8183L69.15 46.1865C69.5898 45.937 69.9705 45.5956 70.2663 45.1855C70.562 44.7755 70.7659 44.3065 70.8639 43.8105C71.6896 39.6409 71.6877 35.3495 70.8581 31.1806ZM64.2282 40.9013L56.3532 45.3779C55.7937 45.6951 55.3324 46.1604 55.0202 46.7226C54.862 47.0156 54.695 47.2881 54.5221 47.5664C54.1749 48.1207 53.9892 48.7609 53.986 49.415L53.945 58.3008C52.0497 59.727 49.974 60.8963 47.7721 61.7783L39.818 57.3281C39.2935 57.0344 38.7024 56.88 38.1012 56.8799H37.0084C36.3802 56.865 35.7593 57.0177 35.2096 57.3222L27.2467 61.7636C25.0411 60.886 22.9607 59.7217 21.0592 58.3008L21.027 49.4414C21.0243 48.7863 20.8386 48.145 20.4909 47.5898C20.3209 47.3144 20.151 47.0302 19.9928 46.7461C19.6803 46.1872 19.2202 45.7251 18.6627 45.4101L10.7819 40.9072C10.4757 38.648 10.4757 36.3578 10.7819 34.0986L18.6569 29.622C19.2154 29.3049 19.6765 28.8409 19.9899 28.2802C20.1481 27.9873 20.3151 27.7119 20.4879 27.4336C20.8351 26.8792 21.0208 26.239 21.0241 25.5849L21.0563 16.6992C22.9523 15.2771 25.0279 14.1117 27.2291 13.2334L35.1832 17.6836C35.7327 17.9918 36.3552 18.1457 36.985 18.1289H37.9928C38.6211 18.1437 39.242 17.991 39.7916 17.6865L47.7545 13.2363C49.9601 14.1139 52.0405 15.2782 53.942 16.6992L53.9743 25.5586C53.977 26.2136 54.1627 26.8549 54.5104 27.4101C54.6803 27.6855 54.8502 27.9697 55.0084 28.2539C55.321 28.8127 55.7811 29.2749 56.3385 29.5898L64.2194 34.081C64.5295 36.3437 64.5325 38.6379 64.2282 40.9013Z" fill="black"/>
</svg>
