<svg width="75" height="75" viewBox="0 0 75 75" fill="none" xmlns="http://www.w3.org/2000/svg">
<path fill-rule="evenodd" clip-rule="evenodd" d="M23.1391 54.2406C33.8344 52.6781 41.1984 52.8125 51.9078 54.2953C52.6834 54.4077 53.3921 54.797 53.903 55.3912C54.4139 55.9854 54.6926 56.7445 54.6875 57.5281C54.6875 58.2781 54.4297 59.0063 53.9641 59.575C53.1525 60.5666 52.3211 61.5418 51.4703 62.5H55.5969C55.8563 62.1906 56.1172 61.875 56.3813 61.5547C57.3081 60.4181 57.8137 58.9962 57.8125 57.5297C57.8125 54.3656 55.5031 51.6391 52.3359 51.2016C41.3734 49.6844 33.7109 49.5391 22.6875 51.15C19.4875 51.6172 17.1875 54.3859 17.1875 57.5719C17.1875 58.9859 17.6484 60.3844 18.5219 61.5172C18.7797 61.8516 19.0344 62.1797 19.2875 62.5016H23.3141C22.5225 61.5539 21.7505 60.5902 20.9984 59.6109C20.5515 59.0247 20.3104 58.3075 20.3125 57.5703C20.3125 55.8875 21.5219 54.4766 23.1391 54.2406ZM37.5 39.0625C38.7311 39.0625 39.9502 38.82 41.0877 38.3489C42.2251 37.8777 43.2586 37.1872 44.1291 36.3166C44.9997 35.4461 45.6902 34.4126 46.1614 33.2752C46.6325 32.1377 46.875 30.9186 46.875 29.6875C46.875 28.4564 46.6325 27.2373 46.1614 26.0998C45.6902 24.9624 44.9997 23.9289 44.1291 23.0584C43.2586 22.1878 42.2251 21.4973 41.0877 21.0261C39.9502 20.555 38.7311 20.3125 37.5 20.3125C35.0136 20.3125 32.629 21.3002 30.8709 23.0584C29.1127 24.8165 28.125 27.2011 28.125 29.6875C28.125 32.1739 29.1127 34.5585 30.8709 36.3166C32.629 38.0748 35.0136 39.0625 37.5 39.0625ZM37.5 42.1875C40.8152 42.1875 43.9946 40.8705 46.3388 38.5263C48.683 36.1821 50 33.0027 50 29.6875C50 26.3723 48.683 23.1929 46.3388 20.8487C43.9946 18.5045 40.8152 17.1875 37.5 17.1875C34.1848 17.1875 31.0054 18.5045 28.6612 20.8487C26.317 23.1929 25 26.3723 25 29.6875C25 33.0027 26.317 36.1821 28.6612 38.5263C31.0054 40.8705 34.1848 42.1875 37.5 42.1875Z" fill="black"/>
<path fill-rule="evenodd" clip-rule="evenodd" d="M37.5 65.625C53.0328 65.625 65.625 53.0328 65.625 37.5C65.625 21.9672 53.0328 9.375 37.5 9.375C21.9672 9.375 9.375 21.9672 9.375 37.5C9.375 53.0328 21.9672 65.625 37.5 65.625ZM37.5 68.75C54.7594 68.75 68.75 54.7594 68.75 37.5C68.75 20.2406 54.7594 6.25 37.5 6.25C20.2406 6.25 6.25 20.2406 6.25 37.5C6.25 54.7594 20.2406 68.75 37.5 68.75Z" fill="black"/>
</svg>
