<svg width="75" height="75" viewBox="0 0 75 75" fill="none" xmlns="http://www.w3.org/2000/svg">
<path d="M12.5 65.625C10.7813 65.625 9.30938 65.0125 8.08438 63.7875C6.85938 62.5625 6.24792 61.0917 6.25001 59.375V25C6.25001 23.2813 6.86251 21.8094 8.08751 20.5844C9.31251 19.3594 10.7833 18.7479 12.5 18.75H25V12.5C25 10.7813 25.6125 9.30938 26.8375 8.08438C28.0625 6.85938 29.5333 6.24792 31.25 6.25001H43.75C45.4688 6.25001 46.9406 6.86251 48.1656 8.08751C49.3906 9.31251 50.0021 10.7833 50 12.5V18.75H62.5C64.2188 18.75 65.6906 19.3625 66.9156 20.5875C68.1406 21.8125 68.7521 23.2833 68.75 25V59.375C68.75 61.0938 68.1375 62.5656 66.9125 63.7906C65.6875 65.0156 64.2167 65.6271 62.5 65.625H12.5ZM12.5 59.375H62.5V25H12.5V59.375ZM31.25 18.75H43.75V12.5H31.25V18.75Z" fill="black"/>
</svg>
