<svg width="75" height="75" viewBox="0 0 75 75" fill="none" xmlns="http://www.w3.org/2000/svg">
<path d="M56.25 28.125V32.8125H18.75V28.125H56.25ZM46.875 9.375V14.0625H18.75V9.375H46.875ZM37.5 65.625V42.1875H56.25V65.625H37.5ZM42.1875 46.875V60.9375H51.5625V46.875H42.1875ZM56.25 18.75V23.4375H18.75V18.75H56.25ZM9.375 0H65.625V75H9.375V0ZM60.9375 70.3125V4.6875H14.0625V70.3125H60.9375ZM32.8125 60.9375V65.625H18.75V60.9375H32.8125ZM32.8125 42.1875V46.875H18.75V42.1875H32.8125ZM32.8125 51.5625V56.25H18.75V51.5625H32.8125Z" fill="black"/>
</svg>
