<svg width="36" height="40" viewBox="0 0 36 40" fill="none" xmlns="http://www.w3.org/2000/svg">
<g clip-path="url(#clip0_216_73)">
<path d="M35.003 16.3992C31.5636 16.4074 28.2084 15.3348 25.4116 13.3328V27.2953C25.4107 29.8813 24.6203 32.4054 23.1461 34.5301C21.6719 36.6547 19.5842 38.2787 17.1621 39.1848C14.74 40.0909 12.0991 40.236 9.59231 39.6006C7.08557 38.9652 4.83254 37.5797 3.13449 35.6293C1.43645 33.6789 0.374311 31.2566 0.090115 28.6863C-0.194081 26.1159 0.313206 23.5201 1.54415 21.2458C2.77509 18.9716 4.67101 17.1273 6.97839 15.9597C9.28578 14.792 11.8946 14.3566 14.4562 14.7117V21.7344C13.284 21.3657 12.0253 21.3768 10.8599 21.7661C9.6944 22.1554 8.68176 22.9031 7.96654 23.9022C7.25133 24.9014 6.87012 26.101 6.87736 27.3298C6.88459 28.5585 7.27991 29.7536 8.00684 30.7443C8.73378 31.7349 9.75516 32.4706 10.9251 32.8462C12.0951 33.2217 13.3538 33.218 14.5215 32.8355C15.6893 32.453 16.7063 31.7114 17.4274 30.7164C18.1484 29.7214 18.5367 28.5241 18.5366 27.2953V0H25.4116C25.4069 0.580578 25.4555 1.16036 25.5569 1.73203C25.7958 3.00819 26.2926 4.22219 27.0167 5.29979C27.7409 6.37739 28.6773 7.29593 29.7687 7.99922C31.3213 9.02585 33.1417 9.57305 35.003 9.57266V16.3992Z" fill="#C9C0B6"/>
</g>
<defs>
<clipPath id="clip0_216_73">
<rect width="35.0057" height="40" fill="white"/>
</clipPath>
</defs>
</svg>
