<svg width="35" height="35" viewBox="0 0 35 35" fill="none" xmlns="http://www.w3.org/2000/svg">
<path d="M17.5 7.65625C17.7901 7.65625 18.0683 7.77148 18.2734 7.9766C18.4785 8.18172 18.5938 8.45992 18.5938 8.75C18.5938 9.04008 18.4785 9.31828 18.2734 9.5234C18.0683 9.72852 17.7901 9.84375 17.5 9.84375C17.2099 9.84375 16.9317 9.72852 16.7266 9.5234C16.5215 9.31828 16.4062 9.04008 16.4062 8.75C16.4062 8.45992 16.5215 8.18172 16.7266 7.9766C16.9317 7.77148 17.2099 7.65625 17.5 7.65625ZM17.5 16.4062C17.7901 16.4062 18.0683 16.5215 18.2734 16.7266C18.4785 16.9317 18.5938 17.2099 18.5938 17.5C18.5938 17.7901 18.4785 18.0683 18.2734 18.2734C18.0683 18.4785 17.7901 18.5938 17.5 18.5938C17.2099 18.5938 16.9317 18.4785 16.7266 18.2734C16.5215 18.0683 16.4062 17.7901 16.4062 17.5C16.4062 17.2099 16.5215 16.9317 16.7266 16.7266C16.9317 16.5215 17.2099 16.4062 17.5 16.4062ZM17.5 25.1562C17.7901 25.1562 18.0683 25.2715 18.2734 25.4766C18.4785 25.6817 18.5938 25.9599 18.5938 26.25C18.5938 26.5401 18.4785 26.8183 18.2734 27.0234C18.0683 27.2285 17.7901 27.3438 17.5 27.3438C17.2099 27.3438 16.9317 27.2285 16.7266 27.0234C16.5215 26.8183 16.4062 26.5401 16.4062 26.25C16.4062 25.9599 16.5215 25.6817 16.7266 25.4766C16.9317 25.2715 17.2099 25.1562 17.5 25.1562Z" fill="black" stroke="black" stroke-width="2.1875"/>
</svg>
