<svg width="75" height="75" viewBox="0 0 75 75" fill="none" xmlns="http://www.w3.org/2000/svg">
<path d="M37.5 68.75L36.7188 59.375H35.9375C28.5417 59.375 22.2656 56.7969 17.1094 51.6406C11.9531 46.4844 9.375 40.2083 9.375 32.8125C9.375 25.4167 11.9531 19.1406 17.1094 13.9844C22.2656 8.82812 28.5417 6.25 35.9375 6.25C39.6354 6.25 43.0865 6.93958 46.2906 8.31875C49.4948 9.69792 52.3073 11.599 54.7281 14.0219C57.149 16.4448 59.049 19.2573 60.4281 22.4594C61.8073 25.6615 62.4979 29.1125 62.5 32.8125C62.5 40.7292 60.1302 47.826 55.3906 54.1031C50.651 60.3802 44.6875 65.2625 37.5 68.75ZM35.8594 49.9219C36.7448 49.9219 37.5 49.6094 38.125 48.9844C38.75 48.3594 39.0625 47.6042 39.0625 46.7188C39.0625 45.8333 38.75 45.0781 38.125 44.4531C37.5 43.8281 36.7448 43.5156 35.8594 43.5156C34.974 43.5156 34.2188 43.8281 33.5938 44.4531C32.9688 45.0781 32.6563 45.8333 32.6563 46.7188C32.6563 47.6042 32.9688 48.3594 33.5938 48.9844C34.2188 49.6094 34.974 49.9219 35.8594 49.9219ZM35.9375 40C36.5104 40 37.0313 39.7917 37.5 39.375C37.9688 38.9583 38.2813 38.3854 38.4375 37.6563C38.5417 36.9792 38.8281 36.3667 39.2969 35.8188C39.7656 35.2708 40.5729 34.425 41.7188 33.2812C42.6563 32.3438 43.4375 31.3281 44.0625 30.2344C44.6875 29.1406 45 27.9688 45 26.7188C45 24.0625 44.1021 22.0698 42.3063 20.7406C40.5104 19.4115 38.3875 18.7479 35.9375 18.75C34.1146 18.75 32.5385 19.1667 31.2094 20C29.8802 20.8333 28.8 21.875 27.9688 23.125C27.6042 23.6979 27.5396 24.2969 27.775 24.9219C28.0104 25.5469 28.4917 25.9896 29.2188 26.25C29.7396 26.4583 30.2604 26.4583 30.7813 26.25C31.3021 26.0417 31.7708 25.651 32.1875 25.0781C32.6042 24.5052 33.1125 24.0365 33.7125 23.6719C34.3125 23.3073 35.0542 23.125 35.9375 23.125C37.3438 23.125 38.399 23.5156 39.1031 24.2969C39.8073 25.0781 40.1583 25.9375 40.1563 26.875C40.1563 27.7604 39.8958 28.5552 39.375 29.2594C38.8542 29.9635 38.2292 30.6792 37.5 31.4063C36.0417 32.6563 35.0646 33.6719 34.5688 34.4531C34.0729 35.2344 33.774 36.3021 33.6719 37.6563C33.6198 38.2813 33.8156 38.8281 34.2594 39.2969C34.7031 39.7656 35.2625 40 35.9375 40ZM43.75 53.125V57.3438C47.4479 54.2188 50.4563 50.5594 52.775 46.3656C55.0938 42.1719 56.2521 37.6542 56.25 32.8125C56.25 27.1354 54.2833 22.3313 50.35 18.4C46.4167 14.4688 41.6125 12.5021 35.9375 12.5C30.2604 12.5 25.4563 14.4667 21.525 18.4C17.5938 22.3333 15.6271 27.1375 15.625 32.8125C15.625 38.4896 17.5917 43.2938 21.525 47.225C25.4583 51.1563 30.2625 53.1229 35.9375 53.125H43.75Z" fill="black"/>
</svg>
