<svg width="30" height="30" viewBox="0 0 30 30" fill="none" xmlns="http://www.w3.org/2000/svg">
<g clip-path="url(#clip0_71_2229)">
<path d="M14.9997 17.1425C17.9584 17.1425 20.3569 14.744 20.3569 11.7854C20.3569 8.8267 17.9584 6.42822 14.9997 6.42822C12.0411 6.42822 9.64258 8.8267 9.64258 11.7854C9.64258 14.744 12.0411 17.1425 14.9997 17.1425Z" stroke="#101010" stroke-width="2.5" stroke-linecap="round" stroke-linejoin="round"/>
<path d="M22.0927 23.0356C20.1347 21.3062 17.6123 20.3517 14.9999 20.3517C12.3874 20.3517 9.86502 21.3062 7.907 23.0356M28.9284 22.4999V26.7856C28.9284 27.3539 28.7027 27.8989 28.3008 28.3008C27.8989 28.7027 27.3539 28.9284 26.7856 28.9284H22.4999M22.4999 1.07129H26.7856C27.3539 1.07129 27.8989 1.29705 28.3008 1.69892C28.7027 2.10078 28.9284 2.64583 28.9284 3.21415V7.49986M1.07129 7.49986V3.21415C1.07129 2.64583 1.29705 2.10078 1.69892 1.69892C2.10078 1.29705 2.64583 1.07129 3.21415 1.07129H7.49986M7.49986 28.9284H3.21415C2.64583 28.9284 2.10078 28.7027 1.69892 28.3008C1.29705 27.8989 1.07129 27.3539 1.07129 26.7856V22.4999" stroke="#101010" stroke-width="2.5" stroke-linecap="round" stroke-linejoin="round"/>
</g>
<defs>
<clipPath id="clip0_71_2229">
<rect width="30" height="30" fill="white"/>
</clipPath>
</defs>
</svg>
