<svg width="50" height="50" viewBox="0 0 50 50" fill="none" xmlns="http://www.w3.org/2000/svg">
<path d="M8.33333 37.5H31.25C32.3958 37.5 33.3333 36.5625 33.3333 35.4167C33.3333 34.2708 32.3958 33.3333 31.25 33.3333H8.33333C7.1875 33.3333 6.25 34.2708 6.25 35.4167C6.25 36.5625 7.1875 37.5 8.33333 37.5ZM8.33333 27.0833H25C26.1458 27.0833 27.0833 26.1458 27.0833 25C27.0833 23.8542 26.1458 22.9167 25 22.9167H8.33333C7.1875 22.9167 6.25 23.8542 6.25 25C6.25 26.1458 7.1875 27.0833 8.33333 27.0833ZM6.25 14.5833C6.25 15.7292 7.1875 16.6667 8.33333 16.6667H31.25C32.3958 16.6667 33.3333 15.7292 33.3333 14.5833C33.3333 13.4375 32.3958 12.5 31.25 12.5H8.33333C7.1875 12.5 6.25 13.4375 6.25 14.5833ZM42.2917 31L36.2917 25L42.2917 19C42.4845 18.8071 42.6375 18.5781 42.7419 18.3261C42.8463 18.0741 42.9 17.804 42.9 17.5312C42.9 17.2585 42.8463 16.9884 42.7419 16.7364C42.6375 16.4844 42.4845 16.2554 42.2917 16.0625C42.0988 15.8696 41.8698 15.7166 41.6178 15.6122C41.3658 15.5079 41.0957 15.4541 40.8229 15.4541C40.5501 15.4541 40.28 15.5079 40.028 15.6122C39.776 15.7166 39.547 15.8696 39.3542 16.0625L31.875 23.5417C31.6819 23.7344 31.5286 23.9633 31.4241 24.2154C31.3196 24.4674 31.2657 24.7376 31.2657 25.0104C31.2657 25.2833 31.3196 25.5534 31.4241 25.8055C31.5286 26.0575 31.6819 26.2864 31.875 26.4792L39.3542 33.9583C40.1667 34.7708 41.4792 34.7708 42.2917 33.9583C43.0833 33.1458 43.1042 31.8125 42.2917 31Z" fill="black"/>
</svg>
