<svg width="20" height="23" viewBox="0 0 20 23" fill="none" xmlns="http://www.w3.org/2000/svg">
<path d="M16.9324 16.9332L11.5381 22.3291C11.3255 22.5418 11.0731 22.7105 10.7953 22.8256C10.5175 22.9407 10.2197 23 9.91901 23C9.61829 23 9.32052 22.9407 9.04271 22.8256C8.76491 22.7105 8.51251 22.5418 8.29994 22.3291L2.90559 16.9332C1.98448 16.0122 1.25379 14.9187 0.755246 13.7153C0.256704 12.5119 7.08747e-05 11.2221 1.46781e-08 9.91955C-7.08453e-05 8.61696 0.256422 7.32712 0.754833 6.12366C1.25324 4.92021 1.98381 3.82671 2.90483 2.90559C3.82584 1.98448 4.91927 1.25379 6.12267 0.755246C7.32607 0.256704 8.61588 7.08552e-05 9.91847 1.46701e-08C11.221 -7.08259e-05 12.5109 0.256422 13.7143 0.754833C14.9178 1.25324 16.0113 1.98381 16.9324 2.90483C17.8536 3.8259 18.5844 4.91941 19.0829 6.12291C19.5815 7.32641 19.8381 8.61633 19.8381 9.91901C19.8381 11.2217 19.5815 12.5116 19.0829 13.7151C18.5844 14.9186 17.8536 16.0121 16.9324 16.9332ZM15.3149 4.5239C13.8838 3.09282 11.9429 2.28733 9.91901 2.28733C7.89516 2.28733 5.95421 3.09129 4.52313 4.52237C3.09206 5.95344 2.28809 7.8944 2.28809 9.91824C2.28809 11.9421 3.09206 13.883 4.52313 15.3141L9.91901 20.7085L15.3149 15.3156C16.0236 14.6071 16.5858 13.7659 16.9694 12.8401C17.3529 11.9142 17.5503 10.9219 17.5503 9.91977C17.5503 8.91763 17.3529 7.9253 16.9694 6.99946C16.5858 6.07363 16.0236 5.23242 15.3149 4.5239ZM9.91901 12.9717C9.51258 12.9809 9.10841 12.9088 8.73023 12.7597C8.35205 12.6105 8.00748 12.3873 7.71675 12.1031C7.42602 11.819 7.19499 11.4796 7.03723 11.1049C6.87946 10.7303 6.79814 10.3278 6.79804 9.92131C6.79794 9.51478 6.87906 9.11232 7.03664 8.73757C7.19421 8.36282 7.42507 8.02333 7.71566 7.73903C8.00624 7.45472 8.3507 7.23134 8.72881 7.08199C9.10691 6.93265 9.51105 6.86034 9.91748 6.86933C10.7149 6.88696 11.4737 7.21607 12.0315 7.7862C12.5893 8.35633 12.9018 9.12217 12.902 9.91979C12.9022 10.7174 12.5901 11.4834 12.0326 12.0538C11.4751 12.6242 10.7164 12.9537 9.91901 12.9717Z" fill="#6A6968"/>
</svg>
