<svg width="22" height="23" viewBox="0 0 22 23" fill="none" xmlns="http://www.w3.org/2000/svg">
<path d="M18.9986 22.6401L12.3073 15.3115C11.7098 15.835 11.0228 16.2494 10.2461 16.5548C9.46942 16.8601 8.64296 17.0128 7.76671 17.0128C5.59602 17.0128 3.75909 16.1892 2.25593 14.542C0.752774 12.8948 0.000796586 10.883 0 8.5064C0 6.12897 0.751977 4.1171 2.25593 2.47078C3.75989 0.824467 5.59681 0.000872451 7.76671 0C9.93741 0 11.7743 0.823594 13.2775 2.47078C14.7807 4.11797 15.5326 6.12984 15.5334 8.5064C15.5334 9.4661 15.394 10.3713 15.1152 11.2219C14.8364 12.0725 14.458 12.825 13.9801 13.4794L20.7013 20.8407C20.9203 21.0806 21.0299 21.3751 21.0299 21.724C21.0299 22.073 20.9104 22.3784 20.6714 22.6401C20.4523 22.88 20.1735 23 19.835 23C19.4964 23 19.2176 22.88 18.9986 22.6401ZM7.76671 14.3954C9.26031 14.3954 10.5301 13.8227 11.576 12.6772C12.6219 11.5316 13.1445 10.1414 13.1437 8.5064C13.1437 6.87055 12.6207 5.47987 11.5748 4.33434C10.5289 3.18881 9.25952 2.61648 7.76671 2.61735C6.27311 2.61735 5.00336 3.19012 3.95744 4.33565C2.91152 5.48118 2.38896 6.87143 2.38976 8.5064C2.38976 10.1422 2.91272 11.5329 3.95863 12.6785C5.00455 13.824 6.27391 14.3963 7.76671 14.3954Z" fill="#6A6968"/>
</svg>
