<svg width="20" height="17" viewBox="0 0 20 17" fill="none" xmlns="http://www.w3.org/2000/svg">
<path d="M1.60689 16.9072C1.22429 17.0582 0.860832 17.0249 0.516499 16.8076C0.172166 16.5902 0 16.2743 0 15.8599V11.6423C0 11.3781 0.0765184 11.1422 0.229555 10.9347C0.382592 10.7271 0.593018 10.595 0.860832 10.5384V10.5384C2.99298 10.0162 2.99298 6.98454 0.860832 6.46235V6.46235C0.593018 6.40574 0.382592 6.27365 0.229555 6.06607C0.0765184 5.85849 0 5.62261 0 5.35843V1.14086C0 0.725708 0.172166 0.409438 0.516499 0.192049C0.860832 -0.0253395 1.22429 -0.0581747 1.60689 0.0935445L19.2826 7.45306C19.7609 7.66063 20 8.00974 20 8.50037C20 8.991 19.7609 9.34011 19.2826 9.54769L1.60689 16.9072Z" fill="white"/>
</svg>
