<svg width="26" height="22" viewBox="0 0 26 22" fill="none" xmlns="http://www.w3.org/2000/svg">
<path d="M2.08895 21.8799C1.59158 22.0753 1.11908 22.0323 0.671449 21.751C0.223816 21.4696 0 21.0608 0 20.5246V15.0665C0 14.7246 0.099474 14.4194 0.298422 14.1508C0.49737 13.8821 0.770923 13.7112 1.11908 13.6379L11.9369 11.0005L1.11908 8.36304C0.770923 8.28978 0.49737 8.11884 0.298422 7.85021C0.099474 7.58158 0 7.27632 0 6.93443V1.47641C0 0.939151 0.223816 0.529861 0.671449 0.248534C1.11908 -0.0327923 1.59158 -0.0752849 2.08895 0.121058L25.0674 9.64513C25.6891 9.91376 26 10.3655 26 11.0005C26 11.6354 25.6891 12.0872 25.0674 12.3558L2.08895 21.8799Z" fill="#C9C0B6"/>
</svg>
